<svg width="24" height="24" viewBox="0 0 24 24" fill="none" xmlns="http://www.w3.org/2000/svg">
<g clip-path="url(#clip0_16_88)">
<path d="M18.5212 13.4849C16.635 13.4849 15.39 12.0261 15.0413 11.4636C15.4875 7.88988 16.7963 6.76113 18.5212 6.76113C20.2275 6.76113 21.555 8.12613 21.555 10.1249C21.555 12.1236 20.2275 13.4886 18.5212 13.4886V13.4849ZM18.5212 4.56738C15.45 4.56738 13.7288 6.56988 13.2338 8.63238C12.675 7.58238 12.2625 6.17613 11.94 4.87113H7.695V10.1586C7.695 12.0749 6.82125 13.4961 5.115 13.4961C3.40875 13.4961 2.43 12.0786 2.43 10.1586L2.44875 4.87113H0V10.1586C0 11.6999 0.49875 13.0986 1.41 14.0999C2.3475 15.1311 3.63 15.6674 5.115 15.6674C8.07 15.6674 10.1325 13.4024 10.1325 10.1586V6.60363C10.44 7.77363 11.175 10.0199 12.5813 11.9886L11.2688 19.4661H13.7587L14.625 14.1674C14.91 14.4036 15.2138 14.6174 15.5325 14.8049C16.365 15.3299 17.3213 15.6261 18.3038 15.6599C18.3038 15.6599 18.4538 15.6674 18.5325 15.6674C21.5775 15.6674 24.0037 13.3086 24.0037 10.1249C24.0037 6.94113 21.5738 4.57113 18.5288 4.57113L18.5212 4.56738Z" fill="#737373"/>
</g>
<defs>
<clipPath id="clip0_16_88">
<rect width="24" height="24" fill="white"/>
</clipPath>
</defs>
</svg>
