<svg width="100" height="100" viewBox="0 0 100 100" fill="none" xmlns="http://www.w3.org/2000/svg">
<path d="M42.99 42.2714C49.3643 41.9594 54.7816 46.8805 55.0813 53.2554C55.381 59.6303 50.4498 65.0382 44.0745 65.326C37.7161 65.6131 32.3257 60.6978 32.0267 54.3399C31.7276 47.982 36.6327 42.5824 42.99 42.2714ZM44.5583 63.4544C49.8844 62.9015 53.7508 58.1321 53.1908 52.807C52.6308 47.4819 47.8561 43.6216 42.5317 44.189C37.2176 44.7553 33.3663 49.5187 33.9253 54.8336C34.4845 60.1486 39.2427 64.0063 44.5583 63.4544Z" fill="#5FC87D"/>
<path d="M80.6156 42.2637C82.4761 42.1368 85.1585 42.7491 86.7275 43.6947C89.3005 45.2451 90.5261 47.3585 91.3146 50.1408C90.8164 50.2119 90.0475 50.5293 89.5515 50.7171C86.8707 51.732 84.2151 52.7937 81.5212 53.7771C79.792 54.4083 78.0934 55.1769 76.3439 55.7667C74.9554 56.2348 73.6325 56.9113 72.2282 57.3181C72.5574 58.0537 72.8882 58.751 73.3126 59.4388C75.9032 63.6364 82.1512 64.8885 86.2921 62.245C87.3411 61.6492 88.4375 60.4413 89.2978 59.5874C89.5493 59.8508 90.2083 60.3758 90.5222 60.6524C89.2354 62.5773 86.8718 64.2866 84.651 64.8734C81.0509 65.8248 76.8684 65.284 73.9683 62.8676C71.6397 60.9638 70.185 58.1957 69.9379 55.1983C69.3429 48.6166 73.1398 43.021 79.9134 42.3303C80.1475 42.3065 80.3815 42.2848 80.6156 42.2637ZM71.8782 55.7248C72.8357 55.2927 73.9191 54.9318 74.904 54.544C75.7736 54.2014 76.6682 53.8036 77.5454 53.5049C78.5752 53.0766 79.6657 52.7506 80.6894 52.325C83.1263 51.3122 85.6189 50.4692 88.0657 49.4834C88.4529 49.3273 88.816 49.1787 89.2147 49.0452C88.554 47.7786 88.0695 46.7964 86.9112 45.8947C85.2799 44.625 83.2832 43.9565 81.2068 44.0138C79.0286 44.1502 77.8014 44.3487 75.9015 45.5262C72.7696 47.4674 71.5375 51.0842 71.7956 54.6461C71.824 54.9981 71.8612 55.3741 71.8782 55.7248Z" fill="#5FC87D"/>
<path d="M8.16936 42.2563C8.72712 42.3225 9.35892 42.2811 9.91641 42.229C9.94736 44.076 9.96333 46.4876 9.84301 48.2907C10.0734 47.8907 10.2392 47.411 10.4471 46.9965C13.6959 40.5193 26.1008 40.4385 27.8033 48.2572C28.3349 50.6991 28.1702 53.3763 28.1703 55.8749L28.1838 65.3349C27.5554 65.3411 26.886 65.3228 26.2544 65.3166C26.3023 63.821 26.2654 62.1336 26.2645 60.6215L26.2647 51.7427C26.2639 51.6117 26.2615 51.4806 26.2577 51.3496C26.1195 46.7424 23.2284 44.0097 18.5981 44.1727C13.8453 44.3399 10.5888 47.4257 10.0274 52.1162C9.83202 53.7482 9.91356 55.4605 9.91389 57.1191L9.91788 63.5209C9.9187 63.9044 10.0288 65.0146 9.81102 65.2503C9.46999 65.3617 8.4359 65.3305 8.02422 65.3291L8.01815 64.8242L8.01394 50.531L8.01344 45.3396C8.01399 44.858 7.93136 42.4977 8.16936 42.2563Z" fill="#5FC87D"/>
<path d="M51.1504 34C52.0938 34.7553 53.0688 35.9414 53.8629 36.8563C60.537 44.5479 64.6473 55.1139 64.9141 65.3082C64.452 65.3234 63.985 65.3422 63.5229 65.3518C63.6678 62.0483 62.8267 55.7741 61.6061 52.7367C61.4508 52.1466 61.2988 51.6863 61.0105 51.1485C61.0959 51.713 61.2058 52.1015 61.3578 52.6468C62.1377 55.7968 62.8098 62.0402 62.5369 65.3078C61.5235 65.3208 59.9972 65.2161 59.0817 65.2779C59.283 62.897 59.4673 61.156 59.3579 58.6921C59.0631 52.0554 57.2207 45.4034 54.2884 39.4549C53.6863 38.233 52.9272 36.9535 52.2502 35.7726C51.9171 35.1916 51.4512 34.5709 51.1504 34Z" fill="#5FC87D"/>
<path d="M77.9772 36.5259C81.3329 36.1472 86.6671 37.499 88.469 40.6959C88.5467 40.8333 88.6233 40.9911 88.6927 41.1341C87.4655 40.2775 87.0783 39.9275 85.6056 39.3703C82.1876 38.0983 78.4038 38.236 75.0875 39.753C70.3111 41.9303 67.5275 46.7956 65.6496 51.3827C65.4407 51.8924 64.622 54.7847 64.3923 54.8851C64.3376 54.8217 63.7897 52.9218 63.683 52.6044C63.3986 51.793 63.1082 50.9839 62.8113 50.177C63.8361 47.5153 66.9861 43.319 68.9303 41.2391C68.5311 41.4513 68.1171 41.7538 67.8032 42.0747C65.7885 44.1323 64.2868 46.5771 62.7621 49.0011C62.6965 49.1058 62.6007 49.2171 62.4804 49.2585C62.4717 49.2521 62.4613 49.2468 62.4531 49.2392C62.3328 49.1262 62.1643 48.6199 62.1501 48.4494C62.0708 47.5212 64.8063 43.9876 65.5932 43.0927C68.8794 39.3549 72.9061 36.8509 77.9772 36.5259Z" fill="#5FC87D"/>
<path d="M61.357 52.6467C61.205 52.1014 61.0951 51.7129 61.0098 51.1484C61.298 51.6862 61.45 52.1465 61.6053 52.7366L61.357 52.6467Z" fill="#5FC87D" fill-opacity="0.027451"/>
</svg>
