<svg width="100" height="100" viewBox="0 0 100 100" fill="none" xmlns="http://www.w3.org/2000/svg">
<path d="M25.9306 52.495C26.2464 52.4687 30.4538 53.9865 31.0795 54.2008C30.9379 54.3304 30.7701 54.4983 30.5914 54.559C29.8604 54.8072 29.0902 55.0208 28.349 55.2378C26.8617 55.676 25.3715 56.1046 23.8787 56.5237C20.3883 57.5117 16.9043 58.5219 13.4267 59.5542C12.0258 59.9675 10.5765 60.3555 9.18916 60.7951C8.11954 61.0656 5.9794 61.8142 5 61.8175C5.16869 61.3589 7.25714 58.0673 7.67582 57.8599C8.38814 57.5069 10.593 56.9087 11.5056 56.6404L22.2869 53.5433C23.4654 53.2013 24.7777 52.8582 25.9306 52.495Z" fill="#000066"/>
<path d="M83.1428 47.1493C83.1534 47.1487 83.1635 47.1482 83.1736 47.1477C84.1667 47.1034 85.6516 47.4557 85.5914 48.712C85.5119 50.3762 84.542 52.4622 83.4685 53.7201C82.6594 54.6682 81.5885 54.8904 80.4117 54.9344C79.5134 54.9105 77.92 54.8973 77.862 53.6627C77.7838 52.0013 78.8327 49.987 79.7745 48.6756C80.645 47.4633 81.7854 47.3032 83.1428 47.1493ZM81.07 53.5269C82.5096 53.3479 83.6117 50.2386 83.7822 48.9948C83.3876 48.4982 83.0822 48.5516 82.4788 48.5943C81.955 48.6755 81.5604 48.8479 81.2563 49.3045C80.6046 50.284 80.0676 51.4278 79.7767 52.5698C79.5029 53.6423 80.3097 53.5724 81.07 53.5269Z" fill="#000066"/>
<path d="M70.9147 47.3489C71.4614 47.327 72.0533 47.3375 72.6031 47.3373C72.4558 47.9528 71.7439 49.4533 71.4601 50.1628C72.3218 50.1512 73.1831 50.1516 74.0444 50.1639C74.4114 49.2136 74.8064 48.2743 75.2283 47.3471C75.7882 47.3292 76.4034 47.3378 76.9681 47.3359C75.873 49.7484 74.8992 52.4566 73.7676 54.8524C73.5751 54.8348 73.2807 54.8399 73.0807 54.8373L72.0995 54.8283C72.186 54.4254 73.2473 51.9079 73.4793 51.4822L70.8554 51.4839C70.5416 52.4336 69.878 53.933 69.4513 54.8544C69.0993 54.8099 68.1207 54.8338 67.7305 54.8346C68.0253 53.9089 68.9315 51.9364 69.3424 50.9614L70.2656 48.7956C70.4375 48.3883 70.7064 47.6913 70.9147 47.3489Z" fill="#000066"/>
<path d="M39.7927 47.1925C40.2329 47.1323 42.361 47.2323 42.7384 47.3932L42.763 47.4615C42.7078 47.7722 42.4382 48.3445 42.277 48.6229C41.8484 48.6253 41.3796 48.5912 40.9562 48.6175C39.5999 48.7019 38.8154 48.1847 38.3608 49.7746C39.083 50.2631 39.9634 50.4451 40.6614 50.9395C40.8429 51.0681 41.0222 51.2764 41.0284 51.5047C41.0518 52.3589 40.7818 53.2282 40.2517 53.8874C39.5525 54.7571 38.6605 54.8403 37.6626 54.9506C36.6528 54.9555 35.5934 54.9472 34.6238 54.6433C34.7551 54.2874 34.9738 53.8244 35.1295 53.4685C36.291 53.4183 39.0165 53.9947 39.1924 52.4188C39.2279 52.1004 38.3812 51.7787 38.1438 51.6984C36.0676 50.9964 36.312 49.742 37.3791 48.2034C37.9468 47.3994 38.8485 47.3008 39.7927 47.1925Z" fill="#000066"/>
<path d="M56.1342 47.282C57.148 47.2127 58.5683 47.3165 59.6089 47.3795C59.4674 47.8174 59.2508 48.2726 59.0253 48.6734C58.222 48.6657 56.5675 48.6125 55.8424 48.7121C55.3388 49.0434 55.2219 49.7793 54.9459 50.3515C55.9158 50.3268 56.9353 50.342 57.9087 50.3422C57.8063 50.7156 57.5954 51.1252 57.4649 51.5345C56.4642 51.5208 55.4416 51.5316 54.4384 51.5273C54.2028 52.034 53.7036 52.9085 53.8341 53.4371C54.1844 53.5517 56.4392 53.4978 56.9863 53.4945C56.9186 53.8396 56.7112 54.4401 56.593 54.7803C55.7567 54.8239 54.9196 54.8445 54.082 54.842C53.6606 54.8449 53.2114 54.8772 52.7949 54.8118C52.587 54.7792 52.3624 54.7117 52.1985 54.5747C51.9977 54.4069 51.8566 54.1756 51.836 53.9119C51.7898 53.3363 53.4909 49.5077 53.8223 48.8468C53.9677 48.5575 54.1312 48.2482 54.3421 48.0012C54.8066 47.4571 55.4597 47.3321 56.1342 47.282Z" fill="#000066"/>
<path d="M64.8992 47.2447C65.6608 47.1703 67.0367 47.1878 67.7605 47.443C67.6678 47.7736 67.3826 48.3611 67.2371 48.7233C66.4338 48.6601 65.4582 48.6246 64.6562 48.7257C64.1416 48.7906 63.7185 49.0477 63.4126 49.5427C62.8589 50.4519 62.0635 51.9701 62.0885 53.0248C62.1066 53.7763 64.8065 53.4233 65.2789 53.3409L65.2231 53.7921L64.9885 54.6212C64.5051 54.7688 64.1386 54.8527 63.6244 54.8928C62.0578 55.0148 59.8131 55.1562 60.227 52.8393C60.5008 51.3078 61.2619 49.7152 62.2516 48.5054C62.9419 47.662 63.8239 47.3172 64.8992 47.2447Z" fill="#000066"/>
<path d="M45.5114 47.352C47.4616 47.2756 49.8253 47.3367 51.8182 47.3349C51.613 47.7877 51.4152 48.2701 51.2201 48.7298C50.466 48.7335 49.7115 48.7301 48.9574 48.7196C48.7849 49.0193 48.452 49.8735 48.2978 50.2433L47.1133 53.0793C46.849 53.6103 46.6528 54.2478 46.3576 54.8351C45.8044 54.8442 45.2305 54.8309 44.6758 54.8254C45.0435 53.3657 45.9962 51.7172 46.5268 50.2888C46.7195 49.77 46.9911 49.2609 47.1848 48.7296C46.4441 48.7323 45.6801 48.7529 44.9442 48.6943L45.5114 47.352Z" fill="#000066"/>
<path d="M76.2069 39H83.6946C82.4207 40.1014 77.5599 43.5156 76.1642 43.8479C75.4871 44.0092 74.6565 43.912 73.956 43.9079L71.0188 43.9037L60.9866 44.0075C54.4977 44.129 48.0097 44.297 41.5233 44.5114C39.1601 44.5899 36.7793 44.7197 34.4216 44.7753L21.632 45.1958L17.0736 45.2932C16.4987 45.3058 15.5037 45.2958 14.9749 45.3489C14.2598 45.4127 13.559 45.4736 12.8418 45.5141C11.842 45.5706 10.2424 45.5347 9.29901 45.7171C9.15419 45.3379 9.11 44.6343 9.35701 44.3183C9.62419 43.9766 10.9469 43.9459 11.377 43.8926C12.9326 43.7044 14.4913 43.5432 16.0525 43.4091L28.9619 42.334C40.0708 41.4052 51.1883 40.5801 62.3124 39.8588L68.1237 39.511C68.9819 39.4577 69.7918 39.3717 70.6641 39.3297C71.9007 39.2798 73.1365 39.2141 74.3713 39.1326C74.8354 39.1055 75.7929 39.0775 76.2069 39Z" fill="#000066"/>
<path d="M15.7125 45.4783C20.5791 46.6897 25.7244 48.0338 30.3943 49.9487C30.6002 50.0331 30.9797 50.3236 31.1022 50.5328C31.4394 51.3523 31.1174 53.0236 31.1355 53.9944C30.3434 53.6535 28.6156 53.1385 27.7082 52.8247C23.0992 51.2519 18.5134 49.612 13.9522 47.9056C12.9604 47.5262 11.9742 47.1321 10.9941 46.7235C10.544 46.5387 9.52878 46.2319 9.32918 45.8139C9.52131 45.7885 9.71041 45.7784 9.90394 45.7732C11.6245 45.7264 13.3392 45.607 15.0576 45.5247C15.2771 45.5142 15.4957 45.5181 15.7125 45.4783Z" fill="#818080"/>
<path d="M91.1869 54.757C90.3476 54.9701 88.6394 55.0649 87.8832 54.6345C86.2779 53.63 87.9724 50.7347 88.5291 49.5617C89.5522 47.4062 92.1871 46.6123 94.3092 47.5073C94.6964 47.6706 94.8976 48.1599 95 48.5531V49.0527C94.6067 50.8746 93.7137 52.897 92.3409 54.1954C92.5343 54.6073 92.6595 54.87 92.7746 55.3092C92.3769 55.5928 92.1098 55.727 91.6725 55.9364C91.5099 55.5498 91.3539 55.1606 91.2036 54.769C91.5104 54.5447 91.9076 54.3445 92.2552 54.1939C92.1581 53.899 92.0983 53.7181 91.9625 53.4362L90.8336 53.9488C91.0107 54.2274 91.0894 54.4501 91.1869 54.757ZM90.3164 53.5322C91.8316 53.3702 92.9583 50.453 93.0893 49.1193C93.1042 48.9653 92.9219 48.7548 92.8138 48.6438C92.4978 48.584 92.2341 48.5512 91.9098 48.5949C91.3754 48.6626 90.8573 48.9294 90.5519 49.4043C89.8919 50.432 89.1659 51.8609 89.093 53.0868C89.0622 53.6016 89.9995 53.5424 90.3164 53.5322Z" fill="#000066"/>
<path d="M14.975 45.3486L14.994 45.4394C15.2514 45.5058 15.5593 45.389 15.7124 45.478C15.4956 45.5179 15.277 45.514 15.0575 45.5245C13.3391 45.6067 11.6244 45.7262 9.90384 45.7729C9.71031 45.7782 9.52121 45.7883 9.32908 45.8136L9.29904 45.7168C10.2424 45.5344 11.8421 45.5703 12.8419 45.5138C13.559 45.4733 14.2598 45.4124 14.975 45.3486Z" fill="#00000E" fill-opacity="0.0156863"/>
</svg>
