<svg width="100" height="100" viewBox="0 0 100 100" fill="none" xmlns="http://www.w3.org/2000/svg">
<path d="M69.8858 37.272C63.4923 37.272 58.3109 42.2684 58.3109 48.4377C58.3109 54.6069 63.4923 59.6105 69.8858 59.6105C76.2793 59.6105 81.4608 54.6069 81.4608 48.4377C81.4608 42.2685 76.2793 37.272 69.8858 37.272ZM69.2827 40.8477C73.4154 40.8477 76.7646 44.0363 76.7646 47.9708C76.7646 51.9052 73.4154 55.0938 69.2827 55.0938C65.1499 55.0938 61.8007 51.9052 61.8007 47.9708C61.8007 44.0363 65.1499 40.8477 69.2827 40.8477Z" fill="#5C5C5C"/>
<path d="M77.6338 25.0006C77.2653 24.9895 76.968 25.143 76.6429 25.3668C76.2448 25.6409 75.9001 26.0851 75.6951 26.5228C74.6474 28.7603 73.657 30.9164 72.6577 33.0643C72.4121 33.5923 72.1291 34.1828 71.7027 34.5794C71.4356 34.8279 71.1706 35.0521 70.8195 34.9528C70.4563 34.85 70.3352 34.6767 70.2092 34.3209C70.0487 33.8682 70.0586 32.9819 70.0081 32.5043C69.9095 31.5707 70.0325 30.6114 69.7927 29.7037C69.6801 29.2774 69.298 28.3291 68.7085 28.2964C67.8066 28.2463 67.1559 29.623 66.7697 30.3931C65.867 32.1933 65.5722 34.208 65.5921 37.1283C65.5942 37.4395 65.6171 38.0617 65.6171 38.0617C65.6171 38.0617 66.9007 37.6302 67.5524 37.5016C67.9292 37.4273 68.3121 37.3674 68.7013 37.3293C69.0904 37.2912 69.4864 37.2719 69.886 37.2719C70.2856 37.2719 70.6816 37.2912 71.0708 37.3293C71.4599 37.3674 71.8429 37.4273 72.2197 37.5016C72.9732 37.6503 73.7029 37.8655 74.3954 38.1479C75.0878 38.4303 75.7398 38.7735 76.3556 39.1747C76.9714 39.5759 77.5481 40.0339 78.0718 40.539C78.5954 41.0441 79.0703 41.5965 79.4863 42.1905C79.9023 42.7845 80.2562 43.4254 80.549 44.0933C80.8418 44.7613 81.0698 45.463 81.224 46.19C81.3011 46.5535 81.364 46.9204 81.4035 47.2958C81.443 47.6713 81.4609 48.052 81.4609 48.4375C81.4609 48.8231 81.443 49.2037 81.4035 49.5793C81.364 49.9548 81.3011 50.3286 81.224 50.6922C81.0698 51.4195 80.8418 52.1206 80.549 52.7889C80.4316 53.0568 80.3135 53.3005 80.1756 53.5573C80.1968 53.5616 80.2909 53.5817 80.3121 53.586C81.6249 53.8504 82.8883 53.9758 84.2254 53.9019C86.302 53.7872 88.47 53.648 90.3002 52.6597C90.9172 52.3265 91.7307 51.8313 91.7506 51.1303C91.7687 50.4927 91.1255 50.0178 90.5802 49.687C90.0313 49.3541 89.2195 49.3111 88.584 49.2203C87.6383 49.0851 86.826 49.2067 85.8196 49.0911C85 48.9968 83.7833 48.8333 83.608 47.9853C83.4409 47.1771 84.4389 46.4791 85.0297 45.9029C86.2217 44.7406 87.7225 43.9475 89.0292 42.9158C90.537 41.7254 91.9846 40.6463 93.3517 39.2969C93.7864 38.8679 94.2059 38.5367 94.5293 38.0187C94.7596 37.65 95.0363 37.073 94.9961 36.6401C94.9693 36.3521 94.8117 36.1347 94.5724 35.9723C94.1838 35.7085 93.7639 35.7393 93.2943 35.7425C92.8091 35.7459 92.4021 35.8619 91.9443 36.0226C90.6838 36.4651 89.4956 37.0992 88.2967 37.6885C87.4107 38.1239 86.6284 38.8082 85.6758 39.0671C85.1036 39.2226 84.2755 39.6069 83.9023 39.1461C83.539 38.6976 84.1106 38.0056 84.3331 37.4731C84.79 36.3793 85.5307 35.4207 86.1569 34.4143C86.8588 33.2863 87.6826 32.238 88.3254 31.0754C88.6413 30.5042 89.0386 29.9376 89.1512 29.2946C89.2321 28.8328 89.2459 28.3102 89.0291 27.8944C88.9047 27.6558 88.6735 27.4394 88.4116 27.3774C87.9378 27.2653 87.4134 27.4744 86.9683 27.6718C86.3144 27.962 85.4312 28.5985 84.9363 29.1151C83.2537 30.8713 81.894 32.4158 80.2976 34.0482C79.7511 34.6069 79.0173 35.6038 78.3014 35.2904C77.8057 35.0734 77.9084 34.2544 77.9711 33.725C78.1613 32.1174 78.5042 30.4666 78.6891 28.828C78.7763 28.0554 78.9419 27.2143 78.8758 26.5016C78.8394 26.1084 78.7955 25.7322 78.567 25.4101C78.4046 25.1812 78.0761 25.0581 77.7987 25.0152C77.7413 25.0082 77.6839 25.004 77.631 25.0025L77.6338 25.0006ZM69.2838 40.848C68.7672 40.848 68.263 40.8967 67.7759 40.9916C67.2888 41.0864 66.8089 41.2135 66.3614 41.3937C66.3513 41.3977 66.3464 41.4146 66.3364 41.4187C66.3413 41.4319 66.3492 41.4524 66.3542 41.4655C67.1893 43.6615 68.1872 45.8988 69.7147 47.6982C71.2512 49.5084 73.2314 50.9492 75.3522 52.0524C75.3635 52.0583 75.3902 52.0724 75.4016 52.0783C75.432 52.0373 75.4582 51.9978 75.4878 51.9562C75.7566 51.5773 75.9878 51.1688 76.1771 50.7427C76.3664 50.3166 76.5155 49.8708 76.6151 49.4071C76.7147 48.9434 76.7659 48.4628 76.7659 47.971C76.7659 47.4792 76.7147 46.9986 76.6151 46.5349C76.5154 46.0712 76.3663 45.6255 76.1771 45.1994C75.9878 44.7733 75.7566 44.3648 75.4878 43.9859C75.2189 43.6069 74.9143 43.2598 74.5758 42.9375C74.2373 42.6153 73.8681 42.3175 73.47 42.0615C73.072 41.8055 72.6467 41.5883 72.1991 41.4081C71.7515 41.2279 71.2788 41.0865 70.7917 40.9916C70.3046 40.8967 69.8004 40.848 69.2838 40.848Z" fill="#D51100"/>
<path d="M80.1752 53.5574C80.3131 53.3007 80.4312 53.056 80.5485 52.7881C80.8414 52.1197 81.0694 51.4186 81.2235 50.6914C81.3006 50.3277 81.3635 49.9539 81.403 49.5784C81.4425 49.2029 81.4605 48.8223 81.4605 48.4367C81.4605 48.0511 81.4425 47.6705 81.403 47.295C81.3635 46.9195 81.3006 46.5527 81.2235 46.1892C81.0693 45.4621 80.8414 44.7604 80.5485 44.0925C80.2557 43.4245 79.9018 42.7836 79.4858 42.1896C79.0698 41.5956 78.5949 41.0432 78.0713 40.5381C77.5477 40.0331 76.9709 39.575 76.3551 39.1738C75.7394 38.7726 75.0873 38.4294 74.3949 38.147C73.7025 37.8646 72.9728 37.6494 72.2192 37.5008C71.8424 37.4264 71.4595 37.3665 71.0703 37.3284C70.6812 37.2903 70.2851 37.271 69.8856 37.271C69.486 37.271 69.0899 37.2903 68.7008 37.3284C68.3116 37.3665 67.9287 37.4264 67.5519 37.5008C66.9002 37.6294 66.2235 37.8243 65.6168 38.0537C65.6903 38.9647 65.9459 40.3673 66.3375 41.4187C66.3475 41.4146 66.357 41.4111 66.3671 41.4071C66.8147 41.2268 67.2874 41.0855 67.7745 40.9906C68.2616 40.8957 68.7658 40.847 69.2824 40.847C69.799 40.847 70.3032 40.8957 70.7903 40.9906C71.2774 41.0855 71.7501 41.2268 72.1977 41.4071C72.6452 41.5873 73.0706 41.8045 73.4686 42.0605C73.8666 42.3165 74.2359 42.6143 74.5744 42.9365C74.9129 43.2588 75.2174 43.6059 75.4863 43.9849C75.7552 44.3638 75.9864 44.7723 76.1756 45.1984C76.3649 45.6245 76.514 46.0702 76.6136 46.5339C76.7133 46.9976 76.7644 47.4782 76.7644 47.97C76.7644 48.4618 76.7133 48.9424 76.6136 49.4061C76.514 49.8698 76.3649 50.3156 76.1756 50.7417C75.9864 51.1678 75.7552 51.5763 75.4863 51.9552C75.4568 51.9968 75.4279 52.0354 75.3975 52.0764C76.9747 52.8027 78.6938 53.2548 80.1752 53.5574Z" fill="white"/>
<path d="M22.6132 48.532C22.1347 48.532 21.7539 48.923 21.7539 49.4126V59.2988C21.7539 59.7885 22.1347 60.1795 22.6132 60.1795C23.0918 60.1795 23.4797 59.7885 23.4797 59.2988V49.4126C23.4797 48.923 23.0918 48.532 22.6132 48.532ZM25.9725 48.532C25.4939 48.532 25.106 48.923 25.106 49.4126V59.2988C25.106 59.7885 25.4939 60.1795 25.9725 60.1795C26.451 60.1795 26.8318 59.7885 26.8318 59.2988V58.0346L28.167 56.7562L30.8304 59.9239C31.0839 60.2543 31.7104 60.2332 32.0022 59.9736C32.3216 59.6896 32.27 59.0967 32.0164 58.7663L29.4455 55.5347L31.91 53.1698C32.2989 52.7809 32.2098 52.2602 31.8816 51.9766C31.47 51.621 30.9845 51.7232 30.6814 52.0263L26.8319 55.6556V49.4128C26.8319 48.9231 26.451 48.532 25.9725 48.532ZM5.73862 49.1783C5.33113 49.1783 5 49.5274 5 49.9666C5 50.4058 5.33113 50.7621 5.73862 50.7621H8.74287V59.3555C8.74287 59.8153 9.1237 60.1794 9.60221 60.1794C10.0807 60.1794 10.4687 59.8153 10.4687 59.3555V50.7621H13.5866C13.994 50.7621 14.3252 50.4058 14.3252 49.9666C14.3252 49.5274 13.994 49.1783 13.5866 49.1783H5.73862ZM36.8106 51.6853C34.3668 51.6853 32.386 53.6166 32.386 55.9963C32.386 58.3761 34.3667 60.3003 36.8106 60.3003C39.2544 60.3003 41.2353 58.3761 41.2353 55.9963C41.2353 53.6165 39.2546 51.6853 36.8106 51.6853ZM51.6257 51.735C51.3717 51.7311 51.1194 51.749 50.8729 51.7989C50.4202 51.8905 49.9806 52.0655 49.5803 52.2961C49.2636 52.4785 48.721 52.8926 48.721 52.8926C48.721 52.8926 48.1623 52.1077 47.1159 51.8273C46.8859 51.7657 46.6489 51.7028 46.4128 51.7009C45.9819 51.6975 45.5343 51.7357 45.1273 51.8771C44.6589 52.0398 43.8702 52.6725 43.8702 52.6725V52.6157C43.8702 52.1229 43.4894 51.8273 43.0109 51.8273C42.4225 51.8273 42.1516 52.2223 42.1516 52.7151V59.2918C42.1516 59.7846 42.5324 60.1795 43.0109 60.1795C43.4894 60.1795 43.8774 59.7846 43.8774 59.2918V55.0873C43.8774 54.4669 44.2683 53.9189 44.7935 53.5888C45.0201 53.4464 45.4015 53.3872 45.6671 53.3544C45.9561 53.3187 46.2109 53.3223 46.6188 53.4183C47.118 53.5558 47.6628 54.1606 47.6628 55.0802V59.2917C47.6628 59.7845 48.0436 60.1795 48.5221 60.1795C49.0007 60.1795 49.3886 59.7845 49.3886 59.2917V54.8814C49.3886 54.443 49.8225 53.8964 50.1769 53.6385C50.495 53.407 50.8844 53.326 51.2778 53.3189C51.598 53.3131 51.9111 53.3272 52.2153 53.532C52.4435 53.6856 52.6553 53.9276 52.7834 54.1711C52.9325 54.4545 52.9965 54.547 52.9965 54.8671C52.9965 54.8859 53.0003 54.9017 53.0036 54.9169V59.2918C53.0036 59.7846 53.3844 60.1795 53.8629 60.1795C54.3415 60.1795 54.7294 59.7053 54.7294 59.2918V54.6082C54.7294 53.7488 54.4382 53.2728 54.1896 52.9497C53.9392 52.6401 53.6069 52.3961 53.2663 52.1897C52.9923 52.0237 52.6923 51.8854 52.3786 51.8204C52.1323 51.7694 51.8798 51.7389 51.6257 51.735ZM16.8402 51.7421C14.2732 51.7421 12.6428 53.6734 12.6428 56.0531C12.6428 58.4329 14.4317 60.286 16.8756 60.286C18.6402 60.286 19.3326 59.9809 20.0928 59.2207C20.3502 58.9633 20.5743 58.296 20.1994 57.921C19.9024 57.624 19.3369 57.7354 19.1128 57.8997C18.4366 58.3951 17.7777 58.7449 16.8756 58.7449C15.6021 58.7449 14.6324 57.8384 14.5745 56.7705H19.4253C19.9841 56.7705 20.2225 56.6217 20.4196 56.4722C20.5749 56.3543 20.7676 55.9569 20.7676 55.762C20.7676 53.6466 19.2684 51.7421 16.8402 51.7421ZM36.797 53.2122C38.2947 53.2122 39.5101 54.4731 39.5101 56.0317C39.5101 57.5905 38.2948 58.8585 36.797 58.8585C35.2993 58.8585 34.0839 57.5906 34.0839 56.0317C34.0839 54.473 35.2992 53.2122 36.797 53.2122ZM16.7265 53.2264C18.1887 53.2264 18.8572 54.2635 18.8572 55.1795H14.5532C14.5532 54.292 15.3067 53.2264 16.7265 53.2264Z" fill="#171717"/>
<path d="M32.5421 62.4338C32.0872 62.4338 31.7253 62.8011 31.7253 63.2577V66.8656C31.1573 66.104 30.2833 65.5109 28.9413 65.5588C26.4989 65.646 24.7155 67.2628 24.7155 69.8414C24.7155 72.2211 26.3837 74.0886 28.8277 74.0886C30.232 74.0886 31.1383 73.4302 31.7253 72.6327V73.2008C31.7253 73.6574 32.0871 74.0247 32.5421 74.0247C32.997 74.0247 33.3659 73.6574 33.3659 73.2008V63.2579C33.3659 62.8013 32.997 62.4338 32.5421 62.4338ZM13.5653 62.8316C13.1103 62.8316 12.7485 63.2198 12.7485 63.7051V73.1227C12.7485 73.6079 13.1103 73.9962 13.5653 73.9962C14.0202 73.9962 14.3891 73.6079 14.3891 73.1227V63.7051C14.3891 63.2199 14.0202 62.8316 13.5653 62.8316ZM64.4459 65.4949C63.878 65.5167 63.2854 65.5891 62.7769 65.8429C62.3626 66.0497 61.9815 66.3685 61.7329 66.7591C61.5052 67.1168 61.3733 67.5566 61.3778 67.9806C61.3823 68.4074 61.5178 68.8517 61.7613 69.2022C62.0076 69.5569 62.4048 69.7909 62.784 69.9976C63.2994 70.2786 63.8949 70.3776 64.4459 70.58C64.8792 70.7392 65.3922 70.7719 65.7385 71.0772C65.9381 71.2531 66.1073 71.5143 66.1149 71.7803C66.1231 72.0673 65.9421 72.3176 65.7242 72.5047C65.4679 72.7249 65.0251 72.7391 64.6873 72.7462C64.2924 72.7545 63.9762 72.6912 63.6007 72.5686C63.3526 72.4876 63.1407 72.3746 62.9047 72.2632C62.7129 72.1727 62.5402 72.0446 62.3436 71.9649C62.1527 71.8876 61.9479 71.7489 61.7471 71.7945C61.5264 71.8445 61.3374 72.0364 61.2428 72.2419C61.1624 72.4166 61.2007 72.5389 61.2712 72.7178C61.3634 72.9515 61.5741 73.1356 61.7755 73.2859C62.0807 73.5139 62.526 73.7006 62.8905 73.8115C63.444 73.9799 63.917 74.0747 64.4956 74.0672C65.0907 74.0594 65.6838 74.0234 66.2427 73.8186C66.7611 73.6286 67.0995 73.337 67.4003 72.874C67.6719 72.456 67.7714 72.0506 67.7412 71.553C67.7209 71.2182 67.7107 70.8091 67.5353 70.5232C67.3374 70.2008 67.0156 69.9248 66.6972 69.7207C66.2523 69.4354 65.8074 69.3202 65.3194 69.117C64.9361 68.9574 64.5398 68.8201 64.1618 68.6483C63.9227 68.5396 63.6415 68.4816 63.4586 68.2932C63.3148 68.145 63.1872 67.9385 63.1959 67.7321C63.2058 67.4948 63.3633 67.2599 63.551 67.1142C63.7955 66.9244 64.1363 66.8722 64.4458 66.8656C64.7277 66.8597 65.0438 66.9429 65.3123 67.029C65.548 67.1045 65.7539 67.2584 65.987 67.3415C66.2662 67.441 66.5074 67.6024 66.8038 67.5971C67.0536 67.5927 67.3732 67.5621 67.514 67.3557C67.6486 67.1583 67.595 66.8508 67.4856 66.6384C67.3605 66.3955 67.0801 66.1975 66.8464 66.056C66.5264 65.8623 66.1764 65.7745 65.8166 65.6725C65.3733 65.5467 64.9063 65.4772 64.4459 65.4949ZM38.7442 65.502C36.3004 65.502 34.3196 67.4333 34.3196 69.8131C34.3196 72.1928 36.3003 74.117 38.7442 74.117C41.188 74.117 43.1689 72.1929 43.1689 69.8131C43.1689 67.4332 41.1882 65.502 38.7442 65.502ZM56.947 65.5233C54.38 65.5233 52.7425 67.4546 52.7425 69.8344C52.7425 72.2141 54.5315 74.0672 56.9754 74.0672C58.7399 74.0672 59.4324 73.7621 60.1926 73.0019C60.45 72.7445 60.6741 72.0772 60.2991 71.7022C60.0022 71.4053 59.4367 71.5167 59.2125 71.6809C58.5363 72.1763 57.8774 72.5261 56.9753 72.5261C55.7018 72.5261 54.7321 71.6196 54.6743 70.5517H59.5251C60.0839 70.5517 60.3222 70.403 60.5193 70.2534C60.6747 70.1356 60.8673 69.7382 60.8673 69.5432C60.8673 67.4279 59.3752 65.5233 56.947 65.5233ZM75.4054 65.5517C74.8323 65.5443 74.2448 65.598 73.7009 65.779C73.3972 65.8801 73.0773 66.0101 72.8629 66.2477C72.6988 66.4296 72.5331 66.6805 72.5717 66.9225C72.606 67.1378 72.7163 67.3172 73.0049 67.4125C73.5243 67.5839 73.8767 67.2603 74.5809 67.0716C75.3733 66.8592 76.4023 66.8703 77.0531 67.3699C77.5005 67.7133 77.6665 68.8009 77.6852 68.9394C77.5099 68.885 77.2899 68.8181 77.1241 68.7903C76.7092 68.7206 76.2869 68.7106 75.867 68.7122C75.3212 68.7142 74.7639 68.709 74.2335 68.8258C73.7122 68.9406 73.1659 69.0516 72.7563 69.394C72.3853 69.7041 72.1124 70.1731 71.9751 70.6368C71.8149 71.1778 71.8313 71.912 72.0461 72.4337C72.2867 73.0179 72.7511 73.341 73.3032 73.6482C73.8329 73.9429 74.4725 74.0734 75.0787 74.0672C75.8066 74.0598 76.5717 73.855 77.1809 73.4564C77.4124 73.3049 77.6993 72.8669 77.6993 72.8669L77.6923 73.2291C77.6798 73.6635 78.0612 74.0388 78.5161 74.0388C78.971 74.0388 79.3329 73.6783 79.3329 73.2291V71.0346C79.3329 71.0346 79.3274 68.9181 79.1482 67.8315C79.0646 67.3245 78.68 66.8034 78.3173 66.4395C78.0034 66.1246 77.6505 65.9818 77.2732 65.85C76.678 65.642 76.0359 65.5599 75.4054 65.5517ZM20.1294 65.5872C19.7829 65.5937 19.372 65.6249 19.1067 65.7151C18.5816 65.8936 17.7573 66.4679 17.7573 66.4679V66.4111C17.7573 66.124 17.6674 65.6156 16.9548 65.6156C16.3679 65.6156 16.1878 66.0958 16.1878 66.5886V73.1653C16.1878 73.6581 16.5686 74.0531 17.0471 74.0531C17.5256 74.0531 17.9136 73.6581 17.9136 73.1653V68.9608C17.9136 68.3404 18.3045 67.7924 18.8297 67.4623C19.0563 67.3199 19.4377 67.2607 19.7033 67.2279C19.9924 67.1923 20.2472 67.1959 20.655 67.2918C21.1555 67.4292 21.8623 68.034 21.8623 68.9537V73.1653C21.8623 73.6581 22.2432 74.053 22.7217 74.053C23.2002 74.053 23.5881 73.6581 23.5881 73.1653V68.7833C23.5881 67.8209 23.314 67.1797 22.9348 66.6882C22.5451 66.1831 21.8512 65.8247 21.2302 65.6584C21.2147 65.6542 21.1962 65.652 21.1805 65.6513C20.9384 65.5943 20.6864 65.5894 20.449 65.5874C20.3556 65.5867 20.2449 65.585 20.1294 65.5872ZM48.3106 65.5872C47.9641 65.5937 47.5532 65.6249 47.2879 65.7151C46.7628 65.8936 45.9385 66.4679 45.9385 66.4679V66.4111C45.9385 66.124 45.8486 65.6156 45.136 65.6156C44.5491 65.6156 44.3689 66.0958 44.3689 66.5886V73.1653C44.3689 73.6581 44.7498 74.0531 45.2283 74.0531C45.7068 74.0531 46.0947 73.6581 46.0947 73.1653V68.9608C46.0947 68.3404 46.4856 67.7924 47.0109 67.4623C47.2374 67.3199 47.6189 67.2607 47.8845 67.2279C48.1735 67.1923 48.4283 67.1959 48.8362 67.2918C49.3367 67.4292 50.0435 68.034 50.0435 68.9537V73.1653C50.0435 73.6581 50.4243 74.053 50.9029 74.053C51.3814 74.053 51.7693 73.6581 51.7693 73.1653V68.7833C51.7693 67.8209 51.4952 67.1797 51.1159 66.6882C50.7263 66.1831 50.0324 65.8247 49.4114 65.6584C49.3958 65.6542 49.3774 65.652 49.3617 65.6513C49.1196 65.5943 48.8675 65.5894 48.6302 65.5874C48.5368 65.5867 48.4261 65.585 48.3106 65.5872ZM69.8726 65.6441C69.4177 65.6441 69.0558 66.0046 69.0558 66.4537V73.1865C69.0558 73.6357 69.4177 73.9962 69.8726 73.9962C70.3275 73.9962 70.6964 73.6357 70.6964 73.1865V66.4537C70.6964 66.0046 70.3275 65.6441 69.8726 65.6441ZM56.8331 67.0148C58.2953 67.0148 58.9638 68.0447 58.9638 68.9607H54.6527C54.6527 68.0732 55.4132 67.0148 56.8331 67.0148ZM38.7299 67.029C40.2276 67.029 41.443 68.2898 41.443 69.8484C41.443 71.4072 40.2277 72.6752 38.7299 72.6752C37.2322 72.6752 36.0168 71.4073 36.0168 69.8484C36.0168 68.2897 37.2321 67.029 38.7299 67.029ZM29.0142 67.0574C30.5119 67.0574 31.7273 68.3182 31.7273 69.8769C31.7273 71.4356 30.5689 72.5332 29.071 72.5332C27.5733 72.5332 26.4147 71.4357 26.4147 69.8769C26.4147 68.3181 27.5164 67.0574 29.0142 67.0574ZM75.4768 69.955C75.9416 69.9292 76.4371 69.9903 76.8972 70.0616C77.1279 70.0973 77.4531 70.1587 77.7424 70.2178C77.7449 70.259 77.7852 70.9516 77.6571 71.276C77.4837 71.7153 77.2077 72.2071 76.7978 72.455C76.3518 72.7247 75.7423 72.7836 75.2211 72.7746C74.8065 72.7673 74.3631 72.6708 74.028 72.4266C73.7168 72.1997 73.5338 71.8942 73.5024 71.5104C73.4655 71.0584 73.5832 70.6468 73.9285 70.3527C74.3318 70.0095 74.948 69.9844 75.4768 69.955Z" fill="#171717"/>
</svg>
